<svg width="12" height="11" viewBox="0 0 12 11" fill="none" xmlns="http://www.w3.org/2000/svg">
<path fill-rule="evenodd" clip-rule="evenodd" d="M1.30435 0.865234H3.91304V2.84161H7.3913V0.865234H10V2.84161H11.3043V10.747H0V2.84161H1.30435V0.865234Z" fill="white"/>
<rect x="0.434814" y="4.3024" width="1.73913" height="1.71857" fill="#96C850"/>
<rect x="2.17383" y="1.29489" width="0.869565" height="2.14822" fill="#96C850"/>
<rect x="8.26099" y="1.29489" width="0.869565" height="2.14822" fill="#96C850"/>
<rect x="0.434814" y="6.45059" width="1.73913" height="1.71857" fill="#96C850"/>
<rect x="0.434814" y="8.59882" width="1.73913" height="1.71857" fill="#96C850"/>
<rect x="2.60864" y="4.3024" width="1.73913" height="1.71857" fill="#96C850"/>
<rect x="2.60864" y="6.45059" width="1.73913" height="1.71857" fill="#96C850"/>
<rect x="2.60864" y="8.59882" width="1.73913" height="1.71857" fill="#96C850"/>
<rect x="4.78271" y="4.3024" width="1.73913" height="1.71857" fill="#96C850"/>
<rect x="4.78271" y="6.45059" width="1.73913" height="1.71857" fill="#96C850"/>
<rect x="4.78271" y="8.59882" width="1.73913" height="1.71857" fill="#96C850"/>
<rect x="6.95654" y="4.3024" width="1.73913" height="1.71857" fill="#96C850"/>
<rect x="6.95654" y="6.45059" width="1.73913" height="1.71857" fill="#96C850"/>
<rect x="6.95654" y="8.59882" width="1.73913" height="1.71857" fill="#96C850"/>
<rect x="9.13037" y="4.3024" width="1.73913" height="1.71857" fill="#96C850"/>
<rect x="9.13037" y="6.45059" width="1.73913" height="1.71857" fill="#96C850"/>
<rect x="9.13037" y="8.59882" width="1.73913" height="1.71857" fill="#96C850"/>
</svg>
